<svg id="Layer_1" data-name="Layer 1" xmlns="http://www.w3.org/2000/svg" viewBox="0 0 64.88 64.89"><defs><style>.cls-1{fill:#404042;fill-rule:evenodd;}</style></defs><path class="cls-1" d="M781.3,789.5a1.77,1.77,0,0,0-1.85,1.94v27H766.13V807.48a1.89,1.89,0,0,0-1.65-1.94h-9.61a2.08,2.08,0,0,0-2,1.94v10.94H739.7v-26a1.87,1.87,0,0,0-1.85-1.95,1.78,1.78,0,0,0-1.85,1.95v28.2a1.91,1.91,0,0,0,1.85,1.94h17a1.89,1.89,0,0,0,1.66-1.94V809.43h5.92v11.18a2.07,2.07,0,0,0,2,1.94H781.3a2.05,2.05,0,0,0,1.85-1.94V791.44a1.87,1.87,0,0,0-1.85-1.94ZM737.87,761h0a2,2,0,0,1,1.7,2.24v14.84l18.62-19.73a1.81,1.81,0,0,1,1.48-.72,1.45,1.45,0,0,1,1.11.72c10.9,11.42,18.48,19.44,30.68,32.56h0a2,2,0,0,1-1.29,3.41,1.82,1.82,0,0,1-1.29-.49l-29.21-31.34-29.39,30.85a1.51,1.51,0,0,1-2.59,0,1.39,1.39,0,0,1-.56-1.21,2.38,2.38,0,0,1,.56-1.46l8.46-9V763.28a2,2,0,0,1,1.72-2.24Z" transform="translate(-727.13 -757.67)"/></svg>